<svg width="168" height="128" viewBox="0 0 168 128" fill="none" xmlns="http://www.w3.org/2000/svg">
<path d="M59 102H73V125.311C73 125.618 72.6682 125.81 72.4015 125.658L66.9923 122.567C66.3774 122.216 65.6226 122.216 65.0077 122.567L59.5985 125.658C59.3318 125.81 59 125.618 59 125.311V102Z" fill="#EF3124"/>
<rect x="44" y="2" width="80" height="112" fill="#C5C6CD"/>
<path fill-rule="evenodd" clip-rule="evenodd" d="M58.5 2C58.7761 2 59 2.22386 59 2.5V113.5C59 113.776 58.7761 114 58.5 114C58.2239 114 58 113.776 58 113.5L58 2.5C58 2.22386 58.2239 2 58.5 2Z" fill="white"/>
<path d="M16 36H152V96C152 98.2091 150.209 100 148 100H20C17.7909 100 16 98.2091 16 96V36Z" fill="#0B1F35"/>
<path fill-rule="evenodd" clip-rule="evenodd" d="M152 45.5C152 45.7761 151.776 46 151.5 46L16.5 46C16.2238 46 16 45.7761 16 45.5C16 45.2239 16.2238 45 16.5 45L151.5 45C151.776 45 152 45.2239 152 45.5Z" fill="white"/>
<rect x="27.5" y="53.5" width="8" height="8" stroke="white"/>
<rect x="42" y="53" width="9" height="9" fill="#4480FF"/>
<rect x="57" y="53" width="9" height="9" fill="white"/>
<rect x="72" y="53" width="9" height="9" fill="#F3F4F5"/>
<rect x="87.5" y="53.5" width="8" height="8" stroke="white"/>
<rect x="102" y="53" width="9" height="9" fill="#4480FF"/>
<rect x="117" y="53" width="9" height="9" fill="white"/>
<rect x="132" y="53" width="9" height="9" fill="#F3F4F5"/>
<rect x="27" y="68" width="9" height="9" fill="white"/>
<rect x="42" y="68" width="9" height="9" fill="#F3F4F5"/>
<rect x="57.5" y="68.5" width="8" height="8" stroke="white"/>
<rect x="72" y="68" width="9" height="9" fill="#4480FF"/>
<rect x="87" y="68" width="9" height="9" fill="white"/>
<rect x="102" y="68" width="9" height="9" fill="#F3F4F5"/>
<rect x="117.5" y="68.5" width="8" height="8" stroke="white"/>
<rect x="132" y="68" width="9" height="9" fill="#4480FF"/>
<rect x="27" y="83" width="9" height="9" fill="#4480FF"/>
<rect x="42" y="83" width="9" height="9" fill="white"/>
<rect x="57" y="83" width="54" height="9" fill="white"/>
<rect x="117" y="83" width="9" height="9" fill="#F3F4F5"/>
<rect x="132" y="83" width="9" height="9" fill="white"/>
<rect x="81" y="17" width="67" height="7" fill="#4480FF"/>
<rect x="148" y="17" width="4" height="7" fill="white"/>
<rect x="146" y="17" width="2" height="7" fill="#C5C6CD"/>
<path fill-rule="evenodd" clip-rule="evenodd" d="M146 20.5C146 20.7762 145.776 21 145.5 21L81 21C80.7239 21 80.5 20.7761 80.5 20.5C80.5 20.2239 80.7239 20 81 20L145.5 20C145.776 20 146 20.2239 146 20.5Z" fill="white"/>
<path d="M80 17H81V24H80L72 20.5L80 17Z" fill="white"/>
<path d="M75 21.8125L72 20.5L75 19.1875V21.8125Z" fill="#0B1F35"/>
</svg>
