<svg width="528" height="276" viewBox="0 0 528 276" fill="none" xmlns="http://www.w3.org/2000/svg">
<path d="M424 260H88V276H424V260Z" fill="white"/>
<path d="M252.6 114C252.6 114 212 114 182.1 143.4V225.8C182.1 225.8 325.2 228 325.2 225.8C325.2 223.6 325.2 138 325.2 138C325.2 138 295.9 114 252.6 114Z" fill="#224080"/>
<path d="M192.2 221.2H151.4C140.7 221.2 132 229.9 132 240.6C132 251.3 140.7 260 151.4 260H199.4L192.2 221.2Z" fill="#FFBDB8"/>
<path d="M134.4 231.3L161.8 186.7L199.4 191.8L193.8 240.6L134.4 231.3Z" fill="#FFBDB8"/>
<path d="M195.9 221.2H157.8" stroke="#FF786F" stroke-width="0.75" stroke-miterlimit="10" stroke-linecap="round"/>
<path d="M188.1 138C188.1 138 166 155.8 142.8 195.1C142.8 195.1 147.8 217.8 191.2 221.3L188.1 138Z" fill="#224080"/>
<path d="M319.8 221.2H360.6C371.3 221.2 380 229.9 380 240.6C380 251.3 371.3 260 360.6 260H312.6L319.8 221.2Z" fill="#FFBDB8"/>
<path d="M377.5 231.1L343.2 178.6L312.6 191.8L318.2 240.6L377.5 231.1Z" fill="#FFBDB8"/>
<path d="M322.2 221.2H354.2" stroke="#FF786F" stroke-width="0.75" stroke-miterlimit="10" stroke-linecap="round"/>
<path d="M325.2 138C325.2 138 347.3 155.8 370.5 195.1C370.5 195.1 365.5 217.8 322.1 221.3L325.2 138Z" fill="#224080"/>
<path d="M325.191 260H186.901C185.801 260 185 259.099 185 258.098V165.902C185 164.801 185.901 164 186.901 164H325.091C326.192 164 326.992 164.901 326.992 165.902V258.098C327.092 259.099 326.192 260 325.191 260Z" fill="#C5C6CD"/>
<path d="M264 212C264 216.364 260.455 220 256 220C251.636 220 248 216.455 248 212C248 207.636 251.545 204 256 204C260.364 204 264 207.636 264 212Z" fill="white"/>
<path d="M376 128H386L377.707 136.293C377.077 136.923 376 136.477 376 135.586V128Z" fill="#4480FF"/>
<rect x="368" y="64" width="128" height="64" rx="4" fill="#4480FF"/>
<rect opacity="0.32" x="384" y="84" width="56" height="8" rx="2" fill="white"/>
<rect opacity="0.32" x="400" y="100" width="40" height="8" rx="2" fill="white"/>
<rect opacity="0.32" x="448" y="80" width="32" height="32" rx="4" fill="white"/>
<path fill-rule="evenodd" clip-rule="evenodd" d="M461.937 88.7408C462.356 89.1002 462.404 89.7315 462.045 90.1508L457.031 96L462.045 101.849C462.404 102.269 462.356 102.9 461.937 103.259C461.517 103.619 460.886 103.57 460.527 103.151L454.955 96.6508C454.634 96.2763 454.634 95.7237 454.955 95.3492L460.527 88.8492C460.886 88.4299 461.517 88.3813 461.937 88.7408Z" fill="white"/>
<path fill-rule="evenodd" clip-rule="evenodd" d="M467.063 103.259C466.644 102.9 466.596 102.269 466.955 101.849L471.969 96L466.955 90.1508C466.596 89.7314 466.644 89.1001 467.063 88.7407C467.483 88.3813 468.114 88.4299 468.473 88.8492L474.045 95.3492C474.366 95.7237 474.366 96.2763 474.045 96.6508L468.473 103.151C468.114 103.57 467.483 103.619 467.063 103.259Z" fill="white"/>
<path d="M110 172H120V179.586C120 180.477 118.923 180.923 118.293 180.293L110 172Z" fill="#FFB96F"/>
<rect y="108" width="128" height="64" rx="4" fill="#FFB96F"/>
<rect opacity="0.32" x="56" y="128" width="56" height="8" rx="2" fill="white"/>
<rect opacity="0.32" x="56" y="144" width="32" height="8" rx="2" fill="white"/>
<rect opacity="0.32" x="16" y="124" width="32" height="32" rx="4" fill="white"/>
<path fill-rule="evenodd" clip-rule="evenodd" d="M27.3453 133.988C27.0169 134.317 26.8569 134.7 26.8569 135V137.5C26.8569 138.141 26.5439 138.672 26.2472 139.043C25.9467 139.418 25.572 139.743 25.2318 140C25.572 140.257 25.9467 140.582 26.2472 140.957C26.5439 141.328 26.8569 141.859 26.8569 142.5V144.999C26.8569 146.117 27.1365 146.318 27.1929 146.355C27.3608 146.467 27.6456 146.5 28.3569 146.5C28.9092 146.5 29.3569 146.948 29.3569 147.5C29.3569 148.052 28.9092 148.5 28.3569 148.5C28.3277 148.5 28.2973 148.5 28.2656 148.5C27.7142 148.502 26.8113 148.505 26.0835 148.02C25.2023 147.432 24.8569 146.382 24.8569 145V142.5C24.8569 142.501 24.8569 142.502 24.8569 142.502C24.8562 142.502 24.8454 142.407 24.6854 142.207C24.5245 142.006 24.2852 141.79 24.0069 141.581C23.7345 141.377 23.4566 141.203 23.2437 141.079C23.1383 141.017 23.0513 140.969 22.9921 140.938C22.9626 140.922 22.9402 140.91 22.926 140.903L22.9111 140.895L22.9097 140.894C22.5711 140.725 22.3569 140.379 22.3569 140C22.3569 139.622 22.5705 139.276 22.9087 139.106C22.9088 139.106 22.9096 139.106 22.9097 139.106L22.9111 139.105L22.926 139.097C22.9402 139.09 22.9626 139.078 22.9921 139.062C23.0513 139.031 23.1383 138.983 23.2437 138.921C23.4566 138.797 23.7345 138.623 24.0069 138.419C24.2852 138.21 24.5245 137.994 24.6854 137.793C24.8454 137.593 24.8562 137.498 24.8569 137.498C24.8569 137.498 24.8569 137.499 24.8569 137.5V135C24.8569 134.05 25.322 133.183 25.9311 132.574C26.5402 131.965 27.4067 131.5 28.3569 131.5C28.9092 131.5 29.3569 131.948 29.3569 132.5C29.3569 133.052 28.9092 133.5 28.3569 133.5C28.0572 133.5 27.6737 133.66 27.3453 133.988Z" fill="white"/>
<path fill-rule="evenodd" clip-rule="evenodd" d="M36.6542 146.012C36.9826 145.683 37.1426 145.3 37.1426 145L37.1426 142.5C37.1426 141.859 37.4556 141.328 37.7523 140.957C38.0528 140.582 38.4275 140.257 38.7677 140C38.4275 139.743 38.0528 139.418 37.7523 139.043C37.4556 138.672 37.1426 138.141 37.1426 137.5L37.1426 135.001C37.1426 133.883 36.863 133.682 36.8066 133.645C36.6387 133.533 36.3539 133.5 35.6426 133.5C35.0903 133.5 34.6426 133.052 34.6426 132.5C34.6426 131.948 35.0903 131.5 35.6426 131.5C35.6718 131.5 35.7023 131.5 35.7339 131.5C36.2853 131.498 37.1882 131.495 37.916 131.98C38.7972 132.568 39.1426 133.618 39.1426 135L39.1426 137.5C39.1426 137.499 39.1426 137.498 39.1426 137.498C39.1434 137.498 39.1542 137.593 39.3141 137.793C39.475 137.994 39.7143 138.21 39.9926 138.419C40.2651 138.623 40.543 138.797 40.7558 138.921C40.8612 138.983 40.9482 139.031 41.0074 139.062C41.0369 139.078 41.0594 139.09 41.0735 139.097L41.0884 139.105L41.0898 139.106C41.4284 139.275 41.6426 139.621 41.6426 140C41.6426 140.378 41.429 140.724 41.0908 140.894C41.0907 140.894 41.0899 140.894 41.0898 140.894L41.0884 140.895L41.0735 140.903C41.0594 140.91 41.0369 140.922 41.0074 140.938C40.9482 140.969 40.8612 141.017 40.7558 141.079C40.543 141.203 40.2651 141.377 39.9926 141.581C39.7143 141.79 39.475 142.006 39.3141 142.207C39.1541 142.407 39.1434 142.502 39.1426 142.502C39.1426 142.502 39.1426 142.501 39.1426 142.5L39.1426 145C39.1426 145.95 38.6775 146.817 38.0684 147.426C37.4593 148.035 36.5928 148.5 35.6426 148.5C35.0903 148.5 34.6426 148.052 34.6426 147.5C34.6426 146.948 35.0903 146.5 35.6426 146.5C35.9423 146.5 36.3258 146.34 36.6542 146.012Z" fill="white"/>
<path d="M268.3 128.1H243.4C241.6 128.1 240.1 126.6 240.1 124.8V96.7H271.5V124.9C271.5 126.6 270.1 128.1 268.3 128.1Z" fill="#FFBDB8"/>
<path d="M240.2 97.9999C240.2 97.9999 244.8 112.1 271.6 111.6V92.0999C271.6 92.0999 269.8 95.6999 257.9 95.1999C245.7 94.6999 240.2 97.9999 240.2 97.9999Z" fill="#F5A19D"/>
<path d="M255.5 83.8999C277.039 83.8999 294.5 65.9913 294.5 43.8999C294.5 21.8085 277.039 3.8999 255.5 3.8999C233.961 3.8999 216.5 21.8085 216.5 43.8999C216.5 65.9913 233.961 83.8999 255.5 83.8999Z" fill="#0B1F35"/>
<path d="M289.3 58.5C289.3 58.5 292.1 54 297.9 56.2C303.7 58.4 301.1 72.5 292.4 74.3C292.4 74.3 289.3 75 286.8 72.8C286.8 72.9 288.9 62.5 289.3 58.5Z" fill="#FFBDB8"/>
<path d="M296.7 61.1999C296.7 61.1999 292.3 59.2999 288.8 66.4999" stroke="#FF786F" stroke-width="0.75" stroke-miterlimit="10" stroke-linecap="round" stroke-linejoin="round"/>
<path d="M222.7 58.5C222.7 58.5 219.9 54 214.1 56.2C208.3 58.4 210.9 72.5 219.6 74.3C219.6 74.3 222.7 75 225.2 72.8C225.2 72.9 223.1 62.5 222.7 58.5Z" fill="#FFBDB8"/>
<path d="M215.3 61.1999C215.3 61.1999 219.5 59.1999 223 66.2999" stroke="#FF786F" stroke-width="0.75" stroke-miterlimit="10" stroke-linecap="round" stroke-linejoin="round"/>
<path d="M289.8 46.4001C289.8 55.4001 288.9 74.3 283 85.5C277.5 96 268.4 101.7 256.5 102C244.6 102.3 235.7 98 228.6 84.3C221.5 70.6 221.8 46.5 221.8 46.5C221.8 46.5 221.8 14.3 255.4 14.3C290.9 14.3 289.8 46.4001 289.8 46.4001Z" fill="#FFBDB8"/>
<path d="M222.7 58.4999C222.7 58.4999 235.5 29.2999 225.2 24.5999C225.2 24.5999 217.8 49.6999 222.7 58.4999Z" fill="#0B1F35"/>
<path d="M289.3 58.5C289.3 58.5 282 42.8 288.4 31.5C288.3 31.5 294.2 49.7 289.3 58.5Z" fill="#212A33"/>
<path d="M244.099 65.6C244.099 67.3 242.699 68.7 240.999 68.7C239.299 68.7 237.899 67.3 237.899 65.6C237.899 63.9 239.299 62.5 240.999 62.5C242.699 62.6 244.099 63.9 244.099 65.6Z" fill="#0B1F35"/>
<path d="M272.499 65.6C272.499 67.3 271.099 68.7 269.399 68.7C267.699 68.7 266.299 67.3 266.299 65.6C266.299 63.9 267.699 62.5 269.399 62.5C271.099 62.6 272.499 63.9 272.499 65.6Z" fill="#0B1F35"/>
<path d="M253.409 68L252.401 73.6339C252.155 75.008 253.254 76.3393 254.744 76.3223L258.036 76.2023" stroke="#FF786F" stroke-width="0.75" stroke-miterlimit="10" stroke-linecap="round" stroke-linejoin="round"/>
<path d="M245.9 82.8H264.7C264.7 82.8 265 89.8 255.3 89.4C245.5 89 245.9 82.8 245.9 82.8Z" fill="white"/>
<path d="M238.9 51.4999C238.9 51.4999 231.5 51.8999 232.1 55.7999C232.1 55.7999 232.6 57.9999 239 57.1999C245.4 56.4999 247.9 56.5999 248 53.9999C248.2 51.3999 242.4 50.8999 238.9 51.4999Z" fill="#0B1F35"/>
<path d="M270.7 51.9001C270.7 51.9001 277.6 52.4001 276.8 56.3001C276.8 56.3001 276.9 58.4001 270.6 57.5001C264.2 56.6001 261.5 57.3001 261.5 54.0001C261.5 51.4001 267.3 51.2001 270.7 51.9001Z" fill="#0B1F35"/>
<path d="M225.2 24.6C225.2 24.6 246.2 50 290.6 41.6C290.6 41.6 294.5 18.6 271.6 11.6C248.6 4.50003 230.7 21.1 225.2 24.6Z" fill="#0B1F35"/>
<path d="M225.2 24.6C225.2 24.6 224.8 3.69995 244.1 0.599951C263.4 -2.50005 264 7.79995 277.7 8.59995C298.1 9.79995 307.4 29.9 290.6 41.5L262.2 24.5H225.2V24.6Z" fill="#0B1F35"/>
<path d="M227.3 19.5999C227.3 19.5999 223.5 15.1999 224.8 11.8999" stroke="#0B1F35" stroke-miterlimit="10" stroke-linecap="round" stroke-linejoin="round"/>
<path d="M230.1 19.9C230.1 19.9 224.4 19.5 222.9 16.2" stroke="#0B1F35" stroke-miterlimit="10" stroke-linecap="round" stroke-linejoin="round"/>
<path d="M225.9 18.5C225.9 18.5 204.9 21.1 217.9 54.5L225.9 18.5Z" fill="#0B1F35"/>
<path d="M240.1 110.7L255.5 128.1L244.1 139.8L229.4 117.5L240.1 110.7Z" fill="white"/>
<path d="M271.5 111.6L255.5 128.1L267 139.8L283.4 117.5L271.5 111.6Z" fill="white"/>
<path d="M305 164H319V187.311C319 187.618 318.668 187.81 318.402 187.658L312.992 184.567C312.377 184.216 311.623 184.216 311.008 184.567L305.598 187.658C305.332 187.81 305 187.618 305 187.311V164Z" fill="#EF3124"/>
</svg>
