<svg width="16" height="16" viewBox="0 0 16 16" fill="none" xmlns="http://www.w3.org/2000/svg">
<rect width="16" height="16" fill="#E5E5E5"/>
<g clip-path="url(#clip0_0_1)">
<rect width="1920" height="4417" transform="translate(-66 -219)" fill="white"/>
<rect x="-66" y="-123" width="336" height="4321" fill="white"/>
<path fill-rule="evenodd" clip-rule="evenodd" d="M3.93934 2.93934C4.22064 2.65804 4.60218 2.5 5 2.5H8.5C8.63261 2.5 8.75979 2.55268 8.85355 2.64645L12.3536 6.14645C12.4473 6.24021 12.5 6.36739 12.5 6.5V12C12.5 12.3978 12.342 12.7794 12.0607 13.0607C11.7794 13.342 11.3978 13.5 11 13.5H5C4.60217 13.5 4.22064 13.342 3.93934 13.0607C3.65804 12.7794 3.5 12.3978 3.5 12V4C3.5 3.60218 3.65804 3.22064 3.93934 2.93934Z" fill="#858F9A"/>
<path d="M8.5 2.5C8.63261 2.5 8.75979 2.55268 8.85355 2.64645L12.3536 6.14645C12.4473 6.24021 12.5 6.36739 12.5 6.5C12.5 6.77614 12.2761 7 12 7H8.5C8.22386 7 8 6.77614 8 6.5V3C8 2.72386 8.22386 2.5 8.5 2.5Z" fill="#B6BCC3"/>
</g>
<defs>
<clipPath id="clip0_0_1">
<rect width="1920" height="4417" fill="white" transform="translate(-66 -219)"/>
</clipPath>
</defs>
</svg>
