<svg width="24" height="24" viewBox="0 0 24 24" fill="none" xmlns="http://www.w3.org/2000/svg">
<g clip-path="url(#clip0_1301_8500)">
<path fill-rule="evenodd" clip-rule="evenodd" d="M10.6508 7.74074C11.0701 8.10017 11.1187 8.73147 10.7593 9.15079L8.31708 12L10.7593 14.8492C11.1187 15.2685 11.0701 15.8998 10.6508 16.2593C10.2315 16.6187 9.60017 16.5701 9.24074 16.1508L6.24074 12.6508C5.91975 12.2763 5.91975 11.7237 6.24074 11.3492L9.24074 7.84921C9.60017 7.42988 10.2315 7.38132 10.6508 7.74074Z" fill="#F04539"/>
<path fill-rule="evenodd" clip-rule="evenodd" d="M13.3492 16.2593C12.9299 15.8998 12.8813 15.2685 13.2407 14.8492L15.6829 12L13.2407 9.15079C12.8813 8.73147 12.9299 8.10017 13.3492 7.74074C13.7685 7.38132 14.3998 7.42988 14.7593 7.84921L17.7593 11.3492C18.0802 11.7237 18.0802 12.2763 17.7593 12.6508L14.7593 16.1508C14.3998 16.5701 13.7685 16.6187 13.3492 16.2593Z" fill="#F04539"/>
<path fill-rule="evenodd" clip-rule="evenodd" d="M2 4C2 2.34315 3.34315 1 5 1H16.1716C16.9672 1 17.7303 1.31607 18.2929 1.87868L21.1213 4.70711C21.6839 5.26972 22 6.03278 22 6.82843V20C22 21.6569 20.6569 23 19 23H5C3.34315 23 2 21.6569 2 20V4ZM5 3C4.44772 3 4 3.44772 4 4V20C4 20.5523 4.44772 21 5 21H19C19.5523 21 20 20.5523 20 20V6.82843C20 6.56321 19.8946 6.30886 19.7071 6.12132L16.8787 3.29289C16.6911 3.10536 16.4368 3 16.1716 3H5Z" fill="#F04539"/>
</g>
<defs>
<clipPath id="clip0_1301_8500">
<rect width="24" height="24" fill="white"/>
</clipPath>
</defs>
</svg>
