<svg width="216" height="56" viewBox="0 0 216 56" fill="none" xmlns="http://www.w3.org/2000/svg">
<path d="M51.3952 36.1667C51.1502 36.1667 50.9542 36.1013 50.8072 35.9707C50.6602 35.84 50.5703 35.6603 50.5377 35.4317L47.6222 19.7272L47.5977 19.5312C47.5977 19.3842 47.6467 19.2617 47.7447 19.1637C47.859 19.0657 47.9815 19.0167 48.1122 19.0167H50.2682C50.6765 19.0167 50.9052 19.18 50.9542 19.5067L52.9877 30.6052L55.1927 23.4267C55.356 23.0183 55.6255 22.8142 56.0012 22.8142H57.3242C57.7325 22.8142 57.9938 23.0183 58.1082 23.4267L60.3377 30.5807L62.3712 19.5067C62.4038 19.327 62.4692 19.2045 62.5672 19.1392C62.6815 19.0575 62.8448 19.0167 63.0572 19.0167H65.2132C65.3438 19.0167 65.4582 19.0657 65.5562 19.1637C65.6542 19.2617 65.7032 19.3842 65.7032 19.5312C65.7032 19.6128 65.695 19.6782 65.6787 19.7272L62.7632 35.4317C62.6815 35.9217 62.3957 36.1667 61.9057 36.1667H60.2642C60.0355 36.1667 59.8477 36.1095 59.7007 35.9952C59.5537 35.8808 59.4557 35.7338 59.4067 35.5542L56.6627 27.3712L53.9187 35.5542C53.7553 35.9625 53.4613 36.1667 53.0367 36.1667H51.3952Z" fill="#0B1F35"/>
<path d="M72.8051 36.4117C70.9921 36.4117 69.5466 35.889 68.4686 34.8437C67.4069 33.782 66.8434 32.2957 66.7781 30.3847L66.7536 29.7722L66.7781 29.1597C66.8598 27.2977 67.4314 25.8358 68.4931 24.7742C69.5711 23.7125 71.0084 23.1817 72.8051 23.1817C74.7324 23.1817 76.2188 23.7697 77.2641 24.9457C78.3258 26.1217 78.8566 27.6897 78.8566 29.6497V30.1642C78.8566 30.3275 78.7994 30.4663 78.6851 30.5807C78.5708 30.695 78.4238 30.7522 78.2441 30.7522H70.1101V30.9482C70.1428 31.8465 70.3878 32.606 70.8451 33.2267C71.3188 33.831 71.9639 34.1332 72.7806 34.1332C73.7443 34.1332 74.5201 33.7575 75.1081 33.0062C75.2551 32.8265 75.3694 32.7122 75.4511 32.6632C75.5491 32.6142 75.6879 32.5897 75.8676 32.5897H77.9746C78.1216 32.5897 78.2441 32.6387 78.3421 32.7367C78.4564 32.8183 78.5136 32.9245 78.5136 33.0552C78.5136 33.4472 78.2768 33.9127 77.8031 34.4517C77.3458 34.9743 76.6843 35.4317 75.8186 35.8237C74.9529 36.2157 73.9484 36.4117 72.8051 36.4117ZM75.5246 28.6942V28.6207C75.5246 27.657 75.2796 26.8812 74.7896 26.2932C74.3159 25.7052 73.6544 25.4112 72.8051 25.4112C71.9558 25.4112 71.2943 25.7052 70.8206 26.2932C70.3469 26.8812 70.1101 27.657 70.1101 28.6207V28.6942H75.5246Z" fill="#0B1F35"/>
<path d="M88.0232 36.4117C86.3409 36.4117 85.0342 35.8318 84.1032 34.6722V35.5787C84.1032 35.742 84.0461 35.8808 83.9317 35.9952C83.8337 36.1095 83.6949 36.1667 83.5152 36.1667H81.5797C81.4164 36.1667 81.2776 36.1095 81.1632 35.9952C81.0489 35.8808 80.9917 35.742 80.9917 35.5787V19.3597C80.9917 19.18 81.0489 19.0412 81.1632 18.9432C81.2776 18.8288 81.4164 18.7717 81.5797 18.7717H83.6622C83.8419 18.7717 83.9807 18.8288 84.0787 18.9432C84.1931 19.0412 84.2502 19.18 84.2502 19.3597V24.7987C85.1812 23.7207 86.4389 23.1817 88.0232 23.1817C89.6729 23.1817 90.9387 23.7207 91.8207 24.7987C92.7027 25.8767 93.1764 27.2732 93.2417 28.9882C93.2581 29.1842 93.2662 29.4455 93.2662 29.7722C93.2662 30.1152 93.2581 30.3847 93.2417 30.5807C93.1764 32.3447 92.7027 33.7575 91.8207 34.8192C90.9387 35.8808 89.6729 36.4117 88.0232 36.4117ZM87.1167 33.7902C88.8807 33.7902 89.8199 32.704 89.9342 30.5317C89.9506 30.3683 89.9587 30.1233 89.9587 29.7967C89.9587 29.47 89.9506 29.225 89.9342 29.0617C89.8199 26.8893 88.8807 25.8032 87.1167 25.8032C86.2021 25.8032 85.4997 26.0972 85.0097 26.6852C84.5361 27.2568 84.2829 27.951 84.2502 28.7677L84.2257 29.6987L84.2502 30.6542C84.2992 31.5362 84.5524 32.2793 85.0097 32.8837C85.4671 33.488 86.1694 33.7902 87.1167 33.7902Z" fill="#0B1F35"/>
<path d="M101.493 36.1667C101.33 36.1667 101.191 36.1095 101.077 35.9952C100.962 35.8808 100.905 35.742 100.905 35.5787V19.6292C100.905 19.4495 100.954 19.3025 101.052 19.1882C101.167 19.0738 101.314 19.0167 101.493 19.0167H103.723C103.902 19.0167 104.041 19.0738 104.139 19.1882C104.254 19.3025 104.311 19.4495 104.311 19.6292V25.9502H111.538V19.6292C111.538 19.4495 111.587 19.3025 111.685 19.1882C111.8 19.0738 111.947 19.0167 112.126 19.0167H114.331C114.511 19.0167 114.658 19.0738 114.772 19.1882C114.887 19.3025 114.944 19.4495 114.944 19.6292V35.5787C114.944 35.7583 114.887 35.9053 114.772 36.0197C114.658 36.1177 114.511 36.1667 114.331 36.1667H112.126C111.963 36.1667 111.824 36.1095 111.71 35.9952C111.595 35.8808 111.538 35.742 111.538 35.5787V29.0127H104.311V35.5787C104.311 35.742 104.254 35.8808 104.139 35.9952C104.041 36.1095 103.902 36.1667 103.723 36.1667H101.493Z" fill="#0B1F35"/>
<path d="M121.669 36.4117C120.836 36.4117 120.069 36.2483 119.366 35.9217C118.68 35.5787 118.133 35.1213 117.725 34.5497C117.333 33.978 117.137 33.3492 117.137 32.6632C117.137 31.5525 117.586 30.6542 118.484 29.9682C119.383 29.2822 120.616 28.8167 122.184 28.5717L125.54 28.0817V27.5672C125.54 26.8485 125.361 26.3095 125.001 25.9502C124.642 25.5908 124.062 25.4112 123.262 25.4112C122.723 25.4112 122.282 25.5173 121.939 25.7297C121.612 25.9257 121.351 26.1217 121.155 26.3177C120.959 26.53 120.828 26.6688 120.763 26.7342C120.698 26.9302 120.575 27.0282 120.395 27.0282H118.509C118.362 27.0282 118.231 26.9792 118.117 26.8812C118.019 26.7832 117.97 26.6525 117.97 26.4892C117.986 26.0808 118.182 25.6153 118.558 25.0927C118.95 24.57 119.546 24.1208 120.346 23.7452C121.147 23.3695 122.127 23.1817 123.286 23.1817C125.214 23.1817 126.618 23.6145 127.5 24.4802C128.382 25.3458 128.823 26.481 128.823 27.8857V35.5787C128.823 35.742 128.766 35.8808 128.652 35.9952C128.554 36.1095 128.415 36.1667 128.235 36.1667H126.251C126.088 36.1667 125.949 36.1095 125.834 35.9952C125.72 35.8808 125.663 35.742 125.663 35.5787V34.6232C125.304 35.1458 124.789 35.5787 124.119 35.9217C123.466 36.2483 122.649 36.4117 121.669 36.4117ZM122.502 34.0842C123.401 34.0842 124.136 33.7902 124.707 33.2022C125.279 32.6142 125.565 31.7567 125.565 30.6297V30.1152L123.115 30.5072C122.168 30.6542 121.449 30.891 120.959 31.2177C120.485 31.5443 120.248 31.9445 120.248 32.4182C120.248 32.9408 120.469 33.3492 120.91 33.6432C121.351 33.9372 121.882 34.0842 122.502 34.0842Z" fill="#0B1F35"/>
<path d="M132.064 36.1667C131.901 36.1667 131.762 36.1095 131.648 35.9952C131.534 35.8808 131.476 35.742 131.476 35.5787V24.0147C131.476 23.8513 131.534 23.7125 131.648 23.5982C131.762 23.4838 131.901 23.4267 132.064 23.4267H134.073C134.237 23.4267 134.376 23.4838 134.49 23.5982C134.604 23.7125 134.661 23.8513 134.661 24.0147V25.0192C135.625 23.7942 136.989 23.1817 138.753 23.1817C140.256 23.1817 141.448 23.6798 142.33 24.6762C143.212 25.6562 143.653 26.9955 143.653 28.6942V35.5787C143.653 35.742 143.596 35.8808 143.481 35.9952C143.383 36.1095 143.245 36.1667 143.065 36.1667H140.909C140.746 36.1667 140.607 36.1095 140.492 35.9952C140.378 35.8808 140.321 35.742 140.321 35.5787V28.8412C140.321 27.8775 140.084 27.1343 139.61 26.6117C139.153 26.0727 138.483 25.8032 137.601 25.8032C136.736 25.8032 136.05 26.0727 135.543 26.6117C135.053 27.1507 134.808 27.8938 134.808 28.8412V35.5787C134.808 35.742 134.751 35.8808 134.637 35.9952C134.539 36.1095 134.4 36.1667 134.22 36.1667H132.064Z" fill="#0B1F35"/>
<path d="M151.004 36.4117C149.354 36.4117 148.088 35.8808 147.206 34.8192C146.324 33.7575 145.85 32.3447 145.785 30.5807L145.761 29.7722L145.785 28.9882C145.834 27.2732 146.3 25.8767 147.182 24.7987C148.08 23.7207 149.354 23.1817 151.004 23.1817C152.588 23.1817 153.846 23.7207 154.777 24.7987V19.3597C154.777 19.18 154.834 19.0412 154.948 18.9432C155.062 18.8288 155.201 18.7717 155.365 18.7717H157.447C157.627 18.7717 157.766 18.8288 157.864 18.9432C157.978 19.0412 158.035 19.18 158.035 19.3597V35.5787C158.035 35.742 157.978 35.8808 157.864 35.9952C157.766 36.1095 157.627 36.1667 157.447 36.1667H155.512C155.348 36.1667 155.209 36.1095 155.095 35.9952C154.981 35.8808 154.924 35.742 154.924 35.5787V34.6722C153.993 35.8318 152.686 36.4117 151.004 36.4117ZM151.91 33.7902C152.857 33.7902 153.56 33.488 154.017 32.8837C154.474 32.2793 154.728 31.5362 154.777 30.6542C154.793 30.4582 154.801 30.1397 154.801 29.6987C154.801 29.274 154.793 28.9637 154.777 28.7677C154.744 27.951 154.483 27.2568 153.993 26.6852C153.519 26.0972 152.825 25.8032 151.91 25.8032C150.146 25.8032 149.207 26.8893 149.093 29.0617L149.068 29.7967L149.093 30.5317C149.207 32.704 150.146 33.7902 151.91 33.7902Z" fill="#0B1F35"/>
<path d="M167.866 36.4117C166.184 36.4117 164.877 35.8318 163.946 34.6722V35.5787C163.946 35.742 163.889 35.8808 163.775 35.9952C163.677 36.1095 163.538 36.1667 163.358 36.1667H161.423C161.26 36.1667 161.121 36.1095 161.006 35.9952C160.892 35.8808 160.835 35.742 160.835 35.5787V19.3597C160.835 19.18 160.892 19.0412 161.006 18.9432C161.121 18.8288 161.26 18.7717 161.423 18.7717H163.505C163.685 18.7717 163.824 18.8288 163.922 18.9432C164.036 19.0412 164.093 19.18 164.093 19.3597V24.7987C165.024 23.7207 166.282 23.1817 167.866 23.1817C169.516 23.1817 170.782 23.7207 171.664 24.7987C172.546 25.8767 173.02 27.2732 173.085 28.9882C173.101 29.1842 173.109 29.4455 173.109 29.7722C173.109 30.1152 173.101 30.3847 173.085 30.5807C173.02 32.3447 172.546 33.7575 171.664 34.8192C170.782 35.8808 169.516 36.4117 167.866 36.4117ZM166.96 33.7902C168.724 33.7902 169.663 32.704 169.777 30.5317C169.794 30.3683 169.802 30.1233 169.802 29.7967C169.802 29.47 169.794 29.225 169.777 29.0617C169.663 26.8893 168.724 25.8032 166.96 25.8032C166.045 25.8032 165.343 26.0972 164.853 26.6852C164.379 27.2568 164.126 27.951 164.093 28.7677L164.069 29.6987L164.093 30.6542C164.142 31.5362 164.396 32.2793 164.853 32.8837C165.31 33.488 166.013 33.7902 166.96 33.7902Z" fill="#0B1F35"/>
<path d="M180.981 36.4117C179.07 36.4117 177.592 35.9217 176.546 34.9417C175.501 33.9453 174.937 32.5897 174.856 30.8747L174.831 29.7967L174.856 28.7187C174.937 27.02 175.509 25.6725 176.571 24.6762C177.632 23.6798 179.102 23.1817 180.981 23.1817C182.859 23.1817 184.329 23.6798 185.391 24.6762C186.452 25.6725 187.024 27.02 187.106 28.7187C187.122 28.9147 187.13 29.274 187.13 29.7967C187.13 30.3193 187.122 30.6787 187.106 30.8747C187.024 32.5897 186.461 33.9453 185.415 34.9417C184.37 35.9217 182.892 36.4117 180.981 36.4117ZM180.981 33.9862C181.846 33.9862 182.516 33.7167 182.99 33.1777C183.464 32.6223 183.725 31.8138 183.774 30.7522C183.79 30.5888 183.798 30.2703 183.798 29.7967C183.798 29.323 183.79 29.0045 183.774 28.8412C183.725 27.7795 183.464 26.9792 182.99 26.4402C182.516 25.8848 181.846 25.6072 180.981 25.6072C180.115 25.6072 179.445 25.8848 178.972 26.4402C178.498 26.9792 178.237 27.7795 178.188 28.8412L178.163 29.7967L178.188 30.7522C178.237 31.8138 178.498 32.6223 178.972 33.1777C179.445 33.7167 180.115 33.9862 180.981 33.9862Z" fill="#0B1F35"/>
<path d="M194.99 36.4117C193.079 36.4117 191.601 35.9217 190.555 34.9417C189.51 33.9453 188.947 32.5897 188.865 30.8747L188.84 29.7967L188.865 28.7187C188.947 27.02 189.518 25.6725 190.58 24.6762C191.642 23.6798 193.112 23.1817 194.99 23.1817C196.868 23.1817 198.338 23.6798 199.4 24.6762C200.462 25.6725 201.033 27.02 201.115 28.7187C201.131 28.9147 201.139 29.274 201.139 29.7967C201.139 30.3193 201.131 30.6787 201.115 30.8747C201.033 32.5897 200.47 33.9453 199.424 34.9417C198.379 35.9217 196.901 36.4117 194.99 36.4117ZM194.99 33.9862C195.856 33.9862 196.525 33.7167 196.999 33.1777C197.473 32.6223 197.734 31.8138 197.783 30.7522C197.799 30.5888 197.807 30.2703 197.807 29.7967C197.807 29.323 197.799 29.0045 197.783 28.8412C197.734 27.7795 197.473 26.9792 196.999 26.4402C196.525 25.8848 195.856 25.6072 194.99 25.6072C194.124 25.6072 193.455 25.8848 192.981 26.4402C192.507 26.9792 192.246 27.7795 192.197 28.8412L192.172 29.7967L192.197 30.7522C192.246 31.8138 192.507 32.6223 192.981 33.1777C193.455 33.7167 194.124 33.9862 194.99 33.9862Z" fill="#0B1F35"/>
<path d="M203.976 36.1667C203.813 36.1667 203.674 36.1095 203.56 35.9952C203.446 35.8808 203.388 35.742 203.388 35.5787V19.3597C203.388 19.18 203.446 19.0412 203.56 18.9432C203.674 18.8288 203.813 18.7717 203.976 18.7717H205.961C206.141 18.7717 206.279 18.8288 206.377 18.9432C206.492 19.0412 206.549 19.18 206.549 19.3597V27.7387L210.665 23.8432C210.714 23.8105 210.796 23.7452 210.91 23.6472C211.008 23.5655 211.106 23.5083 211.204 23.4757C211.302 23.443 211.424 23.4267 211.571 23.4267H213.85C214.013 23.4267 214.144 23.4757 214.242 23.5737C214.34 23.6717 214.389 23.8023 214.389 23.9657C214.389 24.1127 214.307 24.2597 214.144 24.4067L209.097 29.1352L214.756 35.2112C214.92 35.3745 215.001 35.5133 215.001 35.6277C215.001 35.791 214.944 35.9217 214.83 36.0197C214.732 36.1177 214.609 36.1667 214.462 36.1667H212.135C211.906 36.1667 211.735 36.1422 211.62 36.0932C211.522 36.0278 211.392 35.9135 211.228 35.7502L206.549 30.8257V35.5787C206.549 35.742 206.492 35.8808 206.377 35.9952C206.279 36.1095 206.141 36.1667 205.961 36.1667H203.976Z" fill="#0B1F35"/>
<path d="M31.4999 14.5833L30.3333 13.8833V51.2167L31.4999 51.9167V14.5833Z" fill="#C4C4C4"/>
<path d="M3.5 43.1667L8.16667 45.9667V52.9667L5.83333 49L3.5 50.1666V43.1667Z" fill="#EF3124"/>
<path d="M2.33325 7.23332V6.06667L10.4999 1.98334V3.15001L2.33325 7.23332Z" fill="#0B1F35"/>
<path d="M10.5 38.15V3.15002L3.5 6.65002V41.65L10.5 38.15Z" fill="white"/>
<path d="M8.16675 0.583344L31.5001 14.5833V51.9167L8.16675 37.9167V0.583344Z" fill="#0B1F35"/>
<path d="M30.3333 15.05L23.3333 18.55L3.5 6.65002L10.5 3.15002L30.3333 15.05Z" fill="white"/>
<path d="M31.5 14.5833V15.75L10.5 3.15001V1.98334L31.5 14.5833Z" fill="#0B1F35"/>
<path d="M30.3333 50.05V15.05L23.3333 18.55V53.55L30.3333 50.05Z" fill="#F3F4F5"/>
<path d="M32.6667 14L9.33333 0C7.20954 0.400135 6.00191 0.755182 4.08333 1.75C2.34364 2.65206 1.36418 3.2598 0 4.66667L23.3333 18.6667L24.5 18.0833L3.5 5.48333L10.5 1.98333L31.5 14.5833L32.6667 14Z" fill="#78A3FF"/>
<path d="M24.4999 18.0833L23.3333 18.6667V56L24.4999 55.4167V18.0833Z" fill="#125EFF"/>
<path d="M32.6667 14L31.5 14.5833V51.9167L32.6667 51.3333V14Z" fill="#125EFF"/>
<path d="M0 4.66666L23.3333 18.6667V56L0 42V4.66666Z" fill="#4480FF"/>
<path d="M8.51106 24.1061C8.56992 24.208 8.59942 24.3033 8.59942 24.3917C8.59942 24.4801 8.57001 24.5414 8.51106 24.5753L5.03932 26.5796L8.51102 32.5929C8.56989 32.6949 8.59939 32.7902 8.59939 32.8785C8.59939 32.918 8.59347 32.9522 8.58166 32.9809C8.56711 33.0163 8.54355 33.0434 8.51102 33.0621L8.06927 33.3169C8.01041 33.3509 7.94276 33.3458 7.86607 33.3015C7.78939 33.2572 7.72174 33.1844 7.66288 33.0822L3.54638 25.9522C3.48748 25.8502 3.45801 25.755 3.45801 25.6666C3.45801 25.5782 3.48739 25.5169 3.54638 25.483L7.66291 23.1063C7.72177 23.0723 7.78954 23.0773 7.8661 23.1215C7.94266 23.1657 8.01041 23.239 8.0693 23.341L8.51106 24.1061Z" fill="white"/>
<path d="M13.5375 24.672L12.9896 24.1823C12.9191 24.1144 12.8497 24.0828 12.7821 24.088C12.7203 24.0926 12.6768 24.1262 12.6518 24.1888C12.6494 24.1949 12.6471 24.2012 12.6451 24.2078L9.35001 35.4743C9.32649 35.549 9.33386 35.6368 9.37212 35.7369C9.39195 35.7889 9.41689 35.8369 9.44698 35.8812C9.47498 35.9222 9.50745 35.9601 9.54442 35.9945L10.0921 36.4842C10.1628 36.5523 10.232 36.5837 10.2997 36.5786C10.3675 36.5733 10.4132 36.5335 10.4366 36.4589L13.7318 25.1922C13.7553 25.1174 13.748 25.0298 13.7096 24.9295C13.6713 24.8291 13.6141 24.7433 13.5375 24.672Z" fill="white"/>
<path d="M19.5355 34.7142L15.4188 27.5841C15.36 27.4822 15.2922 27.4089 15.2158 27.3648C15.1391 27.3205 15.0716 27.3157 15.0125 27.3495L14.5709 27.6045C14.5121 27.6386 14.4827 27.6998 14.4827 27.7882C14.4827 27.8768 14.5121 27.9719 14.5709 28.0738L18.0427 34.0871L14.5709 36.0916C14.5121 36.1256 14.4827 36.187 14.4827 36.2752C14.4827 36.3637 14.5121 36.4589 14.5709 36.5608L15.0125 37.3255C15.0716 37.4277 15.1391 37.5006 15.2158 37.5449C15.2922 37.589 15.36 37.5942 15.4188 37.5601L19.5355 35.1836C19.5609 35.1688 19.5809 35.1491 19.5954 35.1241C19.6143 35.0914 19.6238 35.05 19.6238 34.9998C19.6238 34.9114 19.5944 34.8162 19.5355 34.7142Z" fill="white"/>
</svg>
