<?xml version="1.0" encoding="utf-8"?><svg xmlns="http://www.w3.org/2000/svg" xmlns:xlink="http://www.w3.org/1999/xlink"><symbol fill="none" viewBox="0 0 24 24" id="alert-icon" xmlns="http://www.w3.org/2000/svg"><path d="M20.405 20.2h-16.8c-.28 0-.54-.16-.7-.4a.814.814 0 010-.8l8.4-14.8c.14-.26.4-.4.7-.4.3 0 .56.16.7.4l8.4 14.8c.14.24.14.56 0 .8-.16.24-.42.4-.7.4zm-15.42-1.6h14.06l-7.02-12.38-7.04 12.38zm7.82-4.78V10.1c0-.44-.36-.8-.8-.8-.44 0-.8.36-.8.8v3.72c0 .44.36.8.8.8.44 0 .8-.36.8-.8zm-.1 3.32c.18-.18.3-.44.3-.7 0-.26-.1-.52-.3-.7-.18-.18-.44-.3-.7-.3-.26 0-.52.1-.7.3-.18.18-.3.44-.3.7 0 .26.1.52.3.7.18.18.44.3.7.3.26 0 .52-.12.7-.3z" fill="#EF3124"/></symbol><symbol viewBox="0 0 24 24" fill="none" id="close-icon" xmlns="http://www.w3.org/2000/svg"><path fill-rule="evenodd" clip-rule="evenodd" d="M18.7071 5.29289C19.0976 5.68342 19.0976 6.31658 18.7071 6.70711L6.70711 18.7071C6.31658 19.0976 5.68342 19.0976 5.29289 18.7071C4.90237 18.3166 4.90237 17.6834 5.29289 17.2929L17.2929 5.29289C17.6834 4.90237 18.3166 4.90237 18.7071 5.29289Z" fill="white"/><path fill-rule="evenodd" clip-rule="evenodd" d="M5.29289 5.29289C5.68342 4.90237 6.31658 4.90237 6.70711 5.29289L18.7071 17.2929C19.0976 17.6834 19.0976 18.3166 18.7071 18.7071C18.3166 19.0976 17.6834 19.0976 17.2929 18.7071L5.29289 6.70711C4.90237 6.31658 4.90237 5.68342 5.29289 5.29289Z" fill="white"/></symbol><symbol fill="none" viewBox="0 0 24 24" id="menu-icon" xmlns="http://www.w3.org/2000/svg"><path fill-rule="evenodd" clip-rule="evenodd" d="M2 12C2 11.4477 2.44772 11 3 11H21C21.5523 11 22 11.4477 22 12C22 12.5523 21.5523 13 21 13H3C2.44772 13 2 12.5523 2 12Z" fill="white"/><path fill-rule="evenodd" clip-rule="evenodd" d="M2 6C2 5.44772 2.44772 5 3 5H21C21.5523 5 22 5.44772 22 6C22 6.55228 21.5523 7 21 7H3C2.44772 7 2 6.55228 2 6Z" fill="white"/><path fill-rule="evenodd" clip-rule="evenodd" d="M2 18C2 17.4477 2.44772 17 3 17H21C21.5523 17 22 17.4477 22 18C22 18.5523 21.5523 19 21 19H3C2.44772 19 2 18.5523 2 18Z" fill="white"/></symbol><symbol viewBox="0 0 16 16" id="animation-icon" xmlns="http://www.w3.org/2000/svg"><path fill-rule="evenodd" clip-rule="evenodd" d="M11.033 2.167c0 .733-.6 1.333-1.333 1.333s-1.333-.6-1.333-1.333S8.967.833 9.7.833s1.333.6 1.333 1.334zM7.967 9.834L7.3 12.767l-4.667-.933L2.9 10.5l3.267.667 1.066-5.4-1.2.466V8.5H4.7V5.367L8.167 3.9c.1 0 .183-.016.266-.033.084-.017.167-.034.267-.034.467 0 .867.267 1.133.667l.667 1.067c.533.933 1.6 1.6 2.867 1.6V8.5c-1.467 0-2.8-.667-3.667-1.667l-.4 2 1.4 1.334v5H9.367v-4l-1.4-1.333z"/></symbol><symbol viewBox="0 0 16 16" id="arrow-down" xmlns="http://www.w3.org/2000/svg"><path fill-rule="evenodd" clip-rule="evenodd" d="M3.528 5.529c.26-.26.683-.26.943 0L8 9.057l3.528-3.528a.667.667 0 11.943.942l-4 4a.667.667 0 01-.943 0l-4-4a.667.667 0 010-.942z"/></symbol><symbol viewBox="0 0 16 16" id="background-color-icon" xmlns="http://www.w3.org/2000/svg"><path fill-rule="evenodd" clip-rule="evenodd" d="M3.333 2h9.334C13.4 2 14 2.6 14 3.333v9.334C14 13.4 13.4 14 12.667 14H3.333C2.6 14 2 13.4 2 12.667V3.333C2 2.6 2.6 2 3.333 2zm0 10.667h9.334V3.333H3.333v9.334z"/><path fill-rule="evenodd" clip-rule="evenodd" d="M3.333 12.667h9.334V3.333H3.333v9.334zm4.14-2.114l1.834-2.36 2.36 3.14H4.333L6.167 8.98l1.306 1.573z"/></symbol><symbol viewBox="0 0 16 16" id="background-icon" xmlns="http://www.w3.org/2000/svg"><path d="M10.643 6.857L8.81 9.217 7.5 7.643 5.667 10H13l-2.357-3.143zM2 3.333H.667V14c0 .737.596 1.333 1.333 1.333h10.667V14H2V3.333zM14 .667H4.667C3.93.667 3.333 1.263 3.333 2v9.333c0 .737.597 1.334 1.334 1.334H14c.737 0 1.333-.597 1.333-1.334V2c0-.737-.596-1.333-1.333-1.333zm0 10.666H4.667V2H14v9.333z"/></symbol><symbol viewBox="0 0 16 16" id="block-element-icon" xmlns="http://www.w3.org/2000/svg"><path d="M12.927 4.844L8 2 3.073 4.844 8 7.69l4.927-2.845zM8.357 14l4.929-2.845V5.463L8.357 8.308V14zM2.714 5.463v5.692L7.642 14V8.308L2.714 5.463z"/></symbol><symbol viewBox="0 0 16 16" id="border-icon" xmlns="http://www.w3.org/2000/svg"><path fill-rule="evenodd" clip-rule="evenodd" d="M3.333 2h9.334C13.4 2 14 2.6 14 3.333v9.334C14 13.4 13.4 14 12.667 14H3.333C2.6 14 2 13.4 2 12.667V3.333C2 2.6 2.6 2 3.333 2zm0 10.667h9.334V3.333H3.333v9.334z"/></symbol><symbol viewBox="0 0 16 16" id="bug-icon" xmlns="http://www.w3.org/2000/svg"><path fill-rule="evenodd" clip-rule="evenodd" d="M11.46 5.333h1.873v1.334H11.94c.033.22.06.44.06.666V8h1.333v1.333H12V10c0 .227-.027.447-.06.667h1.393V12H11.46A3.998 3.998 0 018 14a3.998 3.998 0 01-3.46-2H2.667v-1.333H4.06c-.033-.22-.06-.44-.06-.667v-.667H2.667V8H4v-.667c0-.226.027-.446.06-.666H2.667V5.333H4.54c.3-.52.713-.966 1.207-1.306L4.667 2.94l.94-.94L7.06 3.447a3.945 3.945 0 011.887 0L10.393 2l.94.94-1.087 1.087c.5.34.914.786 1.214 1.306zM10.666 10V7.333c0-.146-.02-.313-.046-.46l-.067-.433-.253-.433a2.596 2.596 0 00-.807-.874l-.407-.28-.453-.106a2.524 2.524 0 00-1.26 0l-.493.12-.38.26A2.733 2.733 0 005.693 6l-.246.433-.067.434a2.7 2.7 0 00-.047.466V10c0 .153.02.32.047.473l.067.434.246.426c.48.82 1.36 1.334 2.307 1.334a2.67 2.67 0 002.306-1.334l.247-.433.067-.433c.027-.154.046-.32.046-.467zm-4-.667h2.667v1.334H6.666V9.333zm2.667-2.666H6.666V8h2.667V6.667z"/></symbol><symbol viewBox="0 0 16 16" id="build-icon" xmlns="http://www.w3.org/2000/svg"><path fill-rule="evenodd" clip-rule="evenodd" d="M9.05 6.606l6.054 6.054a.652.652 0 010 .94l-1.533 1.533c-.26.26-.68.26-.94 0L6.557 9.06a4.335 4.335 0 01-4.593-.987 4.324 4.324 0 01-.433-5.613l2.553 2.553.947-.94-2.56-2.567a4.333 4.333 0 015.62.434 4.337 4.337 0 01.96 4.666zm-2.253.814l6.307 6.306.587-.593-6.3-6.3a2.9 2.9 0 00.586-1.307 2.98 2.98 0 00-.826-2.64 3.006 3.006 0 00-2.294-.873l2.06 2.06L4.091 6.9 2.03 4.84a2.978 2.978 0 00.88 2.293 2.981 2.981 0 002.553.833 2.915 2.915 0 001.333-.546z"/></symbol><symbol viewBox="0 0 16 17" id="check-icon" xmlns="http://www.w3.org/2000/svg"><path d="M11.494 5.258a.882.882 0 011.248 1.248L7.447 11.8a.882.882 0 01-1.247 0L3.258 8.86A.882.882 0 114.506 7.61L6.824 9.93l4.67-4.67z"/></symbol><symbol viewBox="0 0 16 16" id="computer-icon" xmlns="http://www.w3.org/2000/svg"><path d="M14 1.333H2c-.737 0-1.333.597-1.333 1.334v8C.667 11.403 1.263 12 2 12h4.667l-1.334 2v.667h5.334V14l-1.334-2H14c.737 0 1.333-.597 1.333-1.333v-8c0-.737-.596-1.334-1.333-1.334zm0 8H2V2.667h12v6.666z"/></symbol><symbol viewBox="0 0 16 16" id="content-icon" xmlns="http://www.w3.org/2000/svg"><path fill-rule="evenodd" clip-rule="evenodd" d="M12.667 2H3.333C2.6 2 2 2.6 2 3.333v9.334C2 13.4 2.6 14 3.333 14h9.334C13.4 14 14 13.4 14 12.667V3.333C14 2.6 13.4 2 12.667 2zM12 5H8.667v1.333H12V5zm0 4.667H8.667V11H12V9.667zm-8.667 3h9.334V3.333H3.333v9.334zm4-8.667H4v3.333h3.333V4zM4.667 6.667h2v-2h-2v2zm2.666 2H4V12h3.333V8.667zm-2.666 2.666h2v-2h-2v2z"/></symbol><symbol viewBox="0 0 24 24" id="css-icon" xmlns="http://www.w3.org/2000/svg"><path fill-rule="evenodd" clip-rule="evenodd" d="M2 4a3 3 0 013-3h11.172a3 3 0 012.12.879l2.83 2.828A3 3 0 0122 6.828V20a3 3 0 01-3 3H5a3 3 0 01-3-3V4zm3-1a1 1 0 00-1 1v16a1 1 0 001 1h14a1 1 0 001-1V6.828a1 1 0 00-.293-.707L16.88 3.293A1 1 0 0016.172 3H5z"/><path d="M9.265 11.886c.172-.214.402-.579.402-1.053V9.678a.33.33 0 01.072-.106.33.33 0 01.105-.072 1 1 0 00-.01-2c-.618 0-1.15.298-1.51.657-.359.36-.657.893-.657 1.51v1.011c-.041.042-.102.096-.184.157a3.25 3.25 0 01-.405.257l-.024.013-.003.002a1 1 0 00.002 1.787l.001.001.024.013a3.307 3.307 0 01.405.257c.082.06.143.115.184.157v1.011c0 .716.178 1.432.81 1.853.483.322 1.063.317 1.307.314h.05a1 1 0 000-2l-.16-.001a1.883 1.883 0 01-.007-.166v-1.166c0-.474-.23-.839-.402-1.053A2.46 2.46 0 009.168 12a2.46 2.46 0 00.097-.114zM14.166 9.5h.16c.004.045.007.1.007.167v1.166c0 .474.23.839.402 1.053.03.04.063.077.096.114a2.545 2.545 0 00-.096.113c-.172.215-.402.58-.402 1.053v1.157a.33.33 0 01-.072.106.333.333 0 01-.105.07 1 1 0 00.01 2c.617 0 1.15-.297 1.51-.657.359-.359.657-.892.657-1.509v-1.011c.041-.042.102-.096.184-.158a3.243 3.243 0 01.405-.256l.024-.013.003-.002a1 1 0 00-.002-1.788h-.001l-.024-.013a3.384 3.384 0 01-.405-.257 1.586 1.586 0 01-.184-.157V9.667c0-.716-.178-1.433-.81-1.853-.483-.322-1.063-.317-1.307-.314h-.05a1 1 0 100 2z"/></symbol><symbol viewBox="0 0 24 24" id="css-receipe-icon" xmlns="http://www.w3.org/2000/svg"><path fill-rule="evenodd" clip-rule="evenodd" d="M5 4a1 1 0 00-1 1v14a1 1 0 001 1h14a1 1 0 001-1V5a1 1 0 00-1-1H5zM2 5a3 3 0 013-3h14a3 3 0 013 3v14a3 3 0 01-3 3H5a3 3 0 01-3-3V5z"/><path fill-rule="evenodd" clip-rule="evenodd" d="M20 8H4V6h16v2z"/><path fill-rule="evenodd" clip-rule="evenodd" d="M11 7a1 1 0 011-1h5a1 1 0 011 1v8.5a1 1 0 01-1.515.858L14.5 15.166l-1.986 1.192A1 1 0 0111 15.5V7zm2 1v5.734l.986-.591a1 1 0 011.028 0l.986.59V8h-3z"/></symbol><symbol viewBox="0 0 16 16" id="dimensions-icon" xmlns="http://www.w3.org/2000/svg"><path fill-rule="evenodd" clip-rule="evenodd" d="M10 2H8.667v1.333H10V2zm5.333 5.333H14v1.334h1.333V7.333zm0 2.667H14v1.333h1.333V10zM14 12.667h1.333c0 .666-.666 1.333-1.333 1.333v-1.333zm0-8h1.333V6H14V4.667zM14 2v1.333h1.333C15.333 2.667 14.667 2 14 2zM7.333 14H2c-.733 0-1.333-.6-1.333-1.333V10h6.666v4zM2 4.667H.667V6H2V4.667zm6.667 8H10V14H8.667v-1.333zm4-10.667h-1.334v1.333h1.334V2zm-1.334 10.667h1.334V14h-1.334v-1.333zM2 2C1.333 2 .667 2.667.667 3.333H2V2zM.667 7.333H2v1.334H.667V7.333zM7.333 2H6v1.333h1.333V2zm-4 0h1.334v1.333H3.333V2z"/></symbol><symbol fill="none" viewBox="0 0 16 16" id="document-icon" xmlns="http://www.w3.org/2000/svg"><path fill-rule="evenodd" clip-rule="evenodd" d="M3.94 2.94A1.5 1.5 0 015 2.5h3.5a.5.5 0 01.354.146l3.5 3.5a.5.5 0 01.146.354V12a1.5 1.5 0 01-1.5 1.5H5A1.5 1.5 0 013.5 12V4c0-.398.158-.78.44-1.06z" fill="#858F9A"/><path d="M8.5 2.5a.5.5 0 01.354.146l3.5 3.5A.5.5 0 0112 7H8.5a.5.5 0 01-.5-.5V3a.5.5 0 01.5-.5z" fill="#B6BCC3"/></symbol><symbol fill="none" viewBox="0 0 16 16" id="email-icon" xmlns="http://www.w3.org/2000/svg"><path fill-rule="evenodd" clip-rule="evenodd" d="M2.667 3.333A.67.67 0 002 4v8a.67.67 0 00.667.667h10.666A.67.67 0 0014 12V4a.67.67 0 00-.667-.667H2.667zM.667 4c0-1.102.898-2 2-2h10.666c1.102 0 2 .898 2 2v8c0 1.101-.898 2-2 2H2.667c-1.102 0-2-.899-2-2V4z" fill="#EF3124"/><path fill-rule="evenodd" clip-rule="evenodd" d="M.787 3.618a.667.667 0 01.929-.164L8 7.853l6.284-4.4a.667.667 0 11.765 1.093L8.382 9.213a.667.667 0 01-.764 0L.95 4.546a.667.667 0 01-.164-.928z" fill="#EF3124"/></symbol><symbol viewBox="0 0 16 16" id="extension-icon" xmlns="http://www.w3.org/2000/svg"><path fill-rule="evenodd" clip-rule="evenodd" d="M5.5 3.167a1.667 1.667 0 013.333 0H11.5c.733 0 1.333.6 1.333 1.333v2.667a1.667 1.667 0 010 3.333v2.667c0 .733-.6 1.333-1.333 1.333H8.967v-.2a1.801 1.801 0 00-3.6 0v.2H2.833c-.733 0-1.333-.6-1.333-1.333v-2.534h.2a1.801 1.801 0 000-3.6h-.193V4.5c0-.733.593-1.333 1.326-1.333H5.5zm2 0a.33.33 0 00-.333-.334.33.33 0 00-.334.334V4.5h-4l.007 1.413a3.134 3.134 0 01-.007 5.84v1.414h1.414a3.14 3.14 0 012.92-2 3.14 3.14 0 012.92 2H11.5v-4h1.333a.33.33 0 00.334-.334.33.33 0 00-.334-.333H11.5v-4h-4V3.167z"/></symbol><symbol viewBox="0 0 16 16" id="fields-icon" xmlns="http://www.w3.org/2000/svg"><path d="M2.75 13.25h10.5v-1.166H2.75v1.166zm4.667-2.334h5.833V9.75H7.417v1.166zM2.75 2.75v1.167h10.5V2.75H2.75zm4.667 3.5h5.833V5.083H7.417V6.25zm0 2.334h5.833V7.417H7.417v1.167zM5.083 10.333V5.666L2.75 8l2.333 2.333z"/></symbol><symbol viewBox="0 0 16 16" id="file-icon" xmlns="http://www.w3.org/2000/svg"><path fill-rule="evenodd" clip-rule="evenodd" d="M4 1.333h5.333l4 4v8c0 .734-.6 1.334-1.333 1.334H3.993c-.733 0-1.326-.6-1.326-1.334l.006-10.666c0-.734.594-1.334 1.327-1.334zm0 1.334v10.666h8V6H8.666V2.667H4z"/></symbol><symbol viewBox="0 0 16 16" id="font-icon" xmlns="http://www.w3.org/2000/svg"><path fill-rule="evenodd" clip-rule="evenodd" d="M1.667 5V3h8.666v2H7v8H5V5H1.667zm6.666 1.333h6v2h-2V13h-2V8.333h-2v-2z"/></symbol><symbol viewBox="0 0 16 16" id="formatting-icon" xmlns="http://www.w3.org/2000/svg"><path d="M5 9.333c-1.104 0-2 .896-2 2 0 .873-.77 1.333-1.334 1.333.613.813 1.663 1.333 2.667 1.333a2.666 2.666 0 002.666-2.667c0-1.103-.896-2-2-2zm9.136-6.247l-.89-.89a.668.668 0 00-.943 0l-5.97 5.97 1.833 1.833 5.97-5.97a.662.662 0 000-.943z"/></symbol><symbol viewBox="0 0 16 16" id="forms-icon" xmlns="http://www.w3.org/2000/svg"><path fill-rule="evenodd" clip-rule="evenodd" d="M8 1.333A6.67 6.67 0 001.333 8 6.67 6.67 0 008 14.667 6.67 6.67 0 0014.666 8 6.67 6.67 0 008 1.333zm0 12A5.34 5.34 0 012.666 8 5.34 5.34 0 018 2.667 5.34 5.34 0 0113.333 8 5.34 5.34 0 018 13.333zM6.666 9.447l4.394-4.394L12 6l-5.334 5.333L4 8.667l.94-.94 1.726 1.72z"/></symbol><symbol viewBox="0 0 16 16" id="frame-icon" xmlns="http://www.w3.org/2000/svg"><path fill-rule="evenodd" clip-rule="evenodd" d="M2.667 2.667h10.666c.734 0 1.334.6 1.334 1.333v8c0 .733-.6 1.333-1.333 1.333H2.667c-.733 0-1.333-.6-1.333-1.333l.006-8c0-.733.593-1.333 1.327-1.333zm7 3.333h-7v2.333h7V6zm-7 3.667h7V12h-7V9.667zM11 12h2.334V6H11v6z"/></symbol><symbol fill="none" viewBox="0 0 16 16" id="gradient-icon" xmlns="http://www.w3.org/2000/svg"><path d="M12.667 2H3.333C2.6 2 2 2.6 2 3.333v9.334C2 13.4 2.6 14 3.333 14h9.334C13.4 14 14 13.4 14 12.667V3.333C14 2.6 13.4 2 12.667 2z" fill="url(#aypaint0_linear)"/><path fill-rule="evenodd" clip-rule="evenodd" d="M3.333 2h9.334C13.4 2 14 2.6 14 3.333v9.334C14 13.4 13.4 14 12.667 14H3.333C2.6 14 2 13.4 2 12.667V3.333C2 2.6 2.6 2 3.333 2zm0 10.667h9.334V3.333H3.333v9.334z" fill="#B6BCC3"/><defs><linearGradient id="aypaint0_linear" x1="2" y1="8" x2="14" y2="8" gradientUnits="userSpaceOnUse"><stop offset=".229" stop-color="#858F9A"/><stop offset=".797" stop-color="#DADADA"/></linearGradient></defs></symbol><symbol viewBox="0 0 24 24" id="html-icon" xmlns="http://www.w3.org/2000/svg"><path fill-rule="evenodd" clip-rule="evenodd" d="M10.65 7.74a1 1 0 01.11 1.41L8.316 12l2.442 2.85a1 1 0 01-1.518 1.3l-3-3.5a1 1 0 010-1.3l3-3.5a1 1 0 011.41-.11zM13.35 16.26a1 1 0 01-.11-1.41L15.684 12 13.24 9.15a1 1 0 011.518-1.3l3 3.5a1 1 0 010 1.3l-3 3.5a1 1 0 01-1.41.11z"/><path fill-rule="evenodd" clip-rule="evenodd" d="M2 4a3 3 0 013-3h11.172a3 3 0 012.12.879l2.83 2.828A3 3 0 0122 6.828V20a3 3 0 01-3 3H5a3 3 0 01-3-3V4zm3-1a1 1 0 00-1 1v16a1 1 0 001 1h14a1 1 0 001-1V6.828a1 1 0 00-.293-.707L16.88 3.293A1 1 0 0016.172 3H5z"/></symbol><symbol viewBox="0 0 24 24" id="html-receipe-icon" xmlns="http://www.w3.org/2000/svg"><path fill-rule="evenodd" clip-rule="evenodd" d="M5 4a1 1 0 00-1 1v14a1 1 0 001 1h14a1 1 0 001-1V5a1 1 0 00-1-1H5zM2 5a3 3 0 013-3h14a3 3 0 013 3v14a3 3 0 01-3 3H5a3 3 0 01-3-3V5z"/><path fill-rule="evenodd" clip-rule="evenodd" d="M20 8H4V6h16v2z"/><path fill-rule="evenodd" clip-rule="evenodd" d="M11 7a1 1 0 011-1h5a1 1 0 011 1v8.5a1 1 0 01-1.515.858L14.5 15.166l-1.986 1.192A1 1 0 0111 15.5V7zm2 1v5.734l.986-.591a1 1 0 011.028 0l.986.59V8h-3z"/></symbol><symbol viewBox="0 0 16 16" id="html5-icon" xmlns="http://www.w3.org/2000/svg"><path d="M3 3l.965 10.058L8 14.158l4.035-1.1L13 3H3zm8.002 3.473H6.733l.072.781h4.177l-.338 4.363-2.619.762-2.81-.875V9.735H6.96v.527l1.066.33 1.009-.33.073-1.306H5.241l-.436-4.162h6.197v1.68z"/></symbol><symbol viewBox="0 0 16 16" id="image-icon" xmlns="http://www.w3.org/2000/svg"><path fill-rule="evenodd" clip-rule="evenodd" d="M12.667 2H3.333C2.6 2 2 2.6 2 3.333v9.334C2 13.4 2.6 14 3.333 14h9.334C13.4 14 14 13.4 14 12.667V3.333C14 2.6 13.4 2 12.667 2zm0 10.667H3.333V3.333h9.334v9.334zm-5.194-2.114l1.834-2.36 2.36 3.14H4.333L6.167 8.98l1.306 1.573z"/></symbol><symbol viewBox="0 0 16 16" id="interface-icon" xmlns="http://www.w3.org/2000/svg"><path fill-rule="evenodd" clip-rule="evenodd" d="M12.162 7.962l-3.097 1.1 2.176 2.785-.983.768L8.082 9.83l-1.817 2.74-2.427-9.185 8.324 4.577zM8.17 12.109l-.794 1.198a1.333 1.333 0 01-2.4-.397L2.549 3.726a1.333 1.333 0 011.931-1.51l8.325 4.577a1.334 1.334 0 01-.196 2.425l-1.354.481 1.036 1.328c.454.58.35 1.418-.23 1.871l-.982.768c-.58.453-1.419.35-1.872-.23L8.17 12.11z"/></symbol><symbol viewBox="0 0 16 16" id="line-item-icon" xmlns="http://www.w3.org/2000/svg"><path d="M2.75 13.25h10.5v-1.167H2.75v1.167zm0-7.583v4.666L5.083 8 2.75 5.667zm4.667 5.25h5.833V9.75H7.417v1.167zM2.75 2.75v1.167h10.5V2.75H2.75zm4.667 3.5h5.833V5.083H7.417V6.25zm0 2.333h5.833V7.417H7.417v1.166z"/></symbol><symbol viewBox="0 0 16 17" id="link-icon" xmlns="http://www.w3.org/2000/svg"><path fill-rule="evenodd" clip-rule="evenodd" d="M2.6 8.746c0-1.14.927-2.067 2.067-2.067h2.666V5.413H4.667a3.335 3.335 0 000 6.666h2.666v-1.266H4.667A2.068 2.068 0 012.6 8.746zm2.733.667h5.334V8.079H5.333v1.334zm3.334-4h2.666a3.335 3.335 0 010 6.666H8.667v-1.266h2.666c1.14 0 2.067-.927 2.067-2.067 0-1.14-.927-2.067-2.067-2.067H8.667V5.413z"/></symbol><symbol viewBox="0 0 16 16" id="list-numbered-icon" xmlns="http://www.w3.org/2000/svg"><path fill-rule="evenodd" clip-rule="evenodd" d="M3 5.333h-.667v-2h-.666v-.666H3v2.666zm0 6.334v-.334H1.667v-.666h2v2.666h-2v-.666H3v-.334h-.667v-.666H3zM1.667 7.333h1.2l-1.2 1.4v.6h2v-.666h-1.2l1.2-1.4v-.6h-2v.666zM5 4.667V3.333h9.333v1.334H5zm0 8h9.333v-1.334H5v1.334zm9.333-4H5V7.333h9.333v1.334z"/></symbol><symbol viewBox="0 0 16 16" id="position-icon" xmlns="http://www.w3.org/2000/svg"><path fill-rule="evenodd" clip-rule="evenodd" d="M13.96 7.333A5.996 5.996 0 008.667 2.04V.667H7.333V2.04A5.996 5.996 0 002.04 7.333H.667v1.333H2.04a5.996 5.996 0 005.293 5.294v1.373h1.334V13.96a5.996 5.996 0 005.293-5.294h1.373V7.333H13.96zm-5.96-2a2.666 2.666 0 100 5.333 2.666 2.666 0 100-5.333zM3.333 8A4.663 4.663 0 008 12.666 4.663 4.663 0 0012.667 8 4.663 4.663 0 008 3.333 4.663 4.663 0 003.333 8z"/></symbol><symbol viewBox="0 0 16 16" id="print-icon" xmlns="http://www.w3.org/2000/svg"><path fill-rule="evenodd" clip-rule="evenodd" d="M12.667 5.333H12V2H4v3.333h-.667c-1.106 0-2 .894-2 2v4H4V14h8v-2.667h2.667v-4c0-1.106-.894-2-2-2zm-7.334-2h5.334v2H5.333v-2zm5.334 9.334V10H5.333v2.667h5.334zM12 10V8.667H4V10H2.667V7.333c0-.366.3-.666.666-.666h9.334c.366 0 .666.3.666.666V10H12zm-.667-2.333a.667.667 0 111.334 0 .667.667 0 01-1.334 0z"/></symbol><symbol viewBox="0 0 16 16" id="pseudoclasses-icon" xmlns="http://www.w3.org/2000/svg"><path fill-rule="evenodd" clip-rule="evenodd" d="M8 1.333A4.672 4.672 0 003.333 6c0 1.587.794 2.98 2 3.827v1.507c0 .366.3.666.667.666h4c.367 0 .667-.3.667-.666V9.827c1.206-.847 2-2.24 2-3.827A4.672 4.672 0 008 1.333zM6 14c0 .367.3.667.667.667h2.666c.367 0 .667-.3.667-.667v-.666H6V14zm3.333-4.867l.567-.4A3.331 3.331 0 0011.333 6a3.335 3.335 0 00-6.666 0c0 1.087.533 2.107 1.433 2.733l.567.4v1.534h2.666V9.133z"/></symbol><symbol viewBox="0 0 16 16" id="pseudoelements-icon" xmlns="http://www.w3.org/2000/svg"><path fill-rule="evenodd" clip-rule="evenodd" d="M4 1.333h5.333l4 4v8c0 .734-.6 1.334-1.333 1.334H3.993c-.733 0-1.326-.6-1.326-1.333l.006-10.667c0-.733.594-1.333 1.327-1.333zm0 1.334v10.666h8V6H8.667V2.667H4z"/><path d="M5.667 7.7v1.933h2v1.7l2.666-2.666L7.667 6v1.7h-2z"/></symbol><symbol viewBox="0 0 16 16" id="regulation-icon" xmlns="http://www.w3.org/2000/svg"><path fill-rule="evenodd" clip-rule="evenodd" d="M9.667.859a7.333 7.333 0 102.792 12.963.667.667 0 10-.811-1.058A6 6 0 1114 8v.667a1.333 1.333 0 11-2.667 0V5.333a.667.667 0 00-1.333 0 3.333 3.333 0 10.493 4.88 2.672 2.672 0 002.174 1.12 2.667 2.667 0 002.666-2.666V8A7.333 7.333 0 009.667.859zM6 7.999a2 2 0 114 0 2 2 0 01-4 0z"/></symbol><symbol viewBox="0 0 16 16" id="rounded-icon" xmlns="http://www.w3.org/2000/svg"><path d="M14 8A6 6 0 112 8a6 6 0 0112 0z"/></symbol><symbol viewBox="0 0 16 16" id="script-icon" xmlns="http://www.w3.org/2000/svg"><path fill-rule="evenodd" clip-rule="evenodd" d="M3 2.333h6l.267 1.334H13v6.666H8.333L8.067 9H4.333v4.667H3V2.333zM8.173 5l-.266-1.333H4.333v4H9.16L9.427 9h2.24V5H8.173z"/></symbol><symbol viewBox="0 0 24 24" id="search-icon" xmlns="http://www.w3.org/2000/svg"><path d="M15.5 14h-.795l-.275-.275A6.438 6.438 0 0016 9.5 6.5 6.5 0 109.5 16a6.46 6.46 0 004.225-1.565l.275.275v.79l5 4.99L20.49 19l-4.99-5zm-6 0a4.5 4.5 0 110-9 4.5 4.5 0 010 9z"/></symbol><symbol viewBox="0 0 16 16" id="table-icon" xmlns="http://www.w3.org/2000/svg"><path fill-rule="evenodd" clip-rule="evenodd" d="M2 2v12h12V2H2zm5.333 10.667h-4v-4h4v4zm-4-5.334h4v-4h-4v4zm9.334 5.334h-4v-4h4v4zm-4-5.334h4v-4h-4v4z"/></symbol><symbol viewBox="0 0 16 17" id="text-icon" xmlns="http://www.w3.org/2000/svg"><path fill-rule="evenodd" clip-rule="evenodd" d="M13.333 2H2.667c-.734 0-1.334.6-1.334 1.333V14c0 .733.6 1.333 1.334 1.333h10.666c.734 0 1.334-.6 1.334-1.333V3.333c0-.733-.6-1.333-1.334-1.333zm-3.46 9h-3.76l-.746 2H3.973L7.38 4.333h1.24L12.027 13h-1.394l-.76-2zM9.38 9.667L8 5.987l-1.38 3.68h2.76zM2.667 14h10.666V3.333H2.667V14z"/></symbol><symbol viewBox="0 0 16 16" id="video-icon" xmlns="http://www.w3.org/2000/svg"><path fill-rule="evenodd" clip-rule="evenodd" d="M2.667 4h8c.366 0 .666.3.666.667V7L14 4.333v7.334L11.333 9v2.333c0 .367-.3.667-.666.667h-8A.669.669 0 012 11.333V4.667C2 4.3 2.3 4 2.667 4zM10 10.667V5.333H3.333v5.334H10z"/></symbol><symbol viewBox="0 0 16 16" id="volume-icon" xmlns="http://www.w3.org/2000/svg"><path fill-rule="evenodd" clip-rule="evenodd" d="M3.5 6v4h2.667L9.5 13.333V2.667L6.167 6H3.5zm7.333-.687v5.367A2.983 2.983 0 0012.5 8a3 3 0 00-1.667-2.687zm-2.666 4.8V5.887L6.72 7.333H4.833v1.334H6.72l1.447 1.446z"/></symbol><symbol viewBox="0 0 16 16" id="warning-icon" xmlns="http://www.w3.org/2000/svg"><path fill-rule="evenodd" clip-rule="evenodd" d="M15.333 14.333L8 1.667.667 14.333h14.666zm-8-2V11h1.333v1.333H7.333zm0-2.666h1.333V7H7.333v2.667z"/></symbol></svg>