<svg width="123" height="32" viewBox="0 0 123 32" fill="none" xmlns="http://www.w3.org/2000/svg">
<path d="M29.3687 20.6667C29.2287 20.6667 29.1167 20.6293 29.0327 20.5547C28.9487 20.48 28.8973 20.3773 28.8787 20.2467L27.2127 11.2727L27.1987 11.1607C27.1987 11.0767 27.2267 11.0067 27.2827 10.9507C27.348 10.8947 27.418 10.8667 27.4927 10.8667H28.7247C28.958 10.8667 29.0887 10.96 29.1167 11.1467L30.2787 17.4887L31.5387 13.3867C31.632 13.1533 31.786 13.0367 32.0007 13.0367H32.7567C32.99 13.0367 33.1393 13.1533 33.2047 13.3867L34.4787 17.4747L35.6407 11.1467C35.6593 11.044 35.6967 10.974 35.7527 10.9367C35.818 10.89 35.9113 10.8667 36.0327 10.8667H37.2647C37.3393 10.8667 37.4047 10.8947 37.4607 10.9507C37.5167 11.0067 37.5447 11.0767 37.5447 11.1607C37.5447 11.2073 37.54 11.2447 37.5307 11.2727L35.8647 20.2467C35.818 20.5267 35.6547 20.6667 35.3747 20.6667H34.4367C34.306 20.6667 34.1987 20.634 34.1147 20.5687C34.0307 20.5033 33.9747 20.4193 33.9467 20.3167L32.3787 15.6407L30.8107 20.3167C30.7173 20.55 30.5493 20.6667 30.3067 20.6667H29.3687Z" fill="white"/>
<path d="M41.6029 20.8067C40.5669 20.8067 39.7409 20.508 39.1249 19.9107C38.5183 19.304 38.1963 18.4547 38.1589 17.3627L38.1449 17.0127L38.1589 16.6627C38.2056 15.5987 38.5323 14.7633 39.1389 14.1567C39.7549 13.55 40.5763 13.2467 41.6029 13.2467C42.7043 13.2467 43.5536 13.5827 44.1509 14.2547C44.7576 14.9267 45.0609 15.8227 45.0609 16.9427V17.2367C45.0609 17.33 45.0283 17.4093 44.9629 17.4747C44.8976 17.54 44.8136 17.5727 44.7109 17.5727H40.0629V17.6847C40.0816 18.198 40.2216 18.632 40.4829 18.9867C40.7536 19.332 41.1223 19.5047 41.5889 19.5047C42.1396 19.5047 42.5829 19.29 42.9189 18.8607C43.0029 18.758 43.0683 18.6927 43.1149 18.6647C43.1709 18.6367 43.2503 18.6227 43.3529 18.6227H44.5569C44.6409 18.6227 44.7109 18.6507 44.7669 18.7067C44.8323 18.7533 44.8649 18.814 44.8649 18.8887C44.8649 19.1127 44.7296 19.3787 44.4589 19.6867C44.1976 19.9853 43.8196 20.2467 43.3249 20.4707C42.8303 20.6947 42.2563 20.8067 41.6029 20.8067ZM43.1569 16.3967V16.3547C43.1569 15.804 43.0169 15.3607 42.7369 15.0247C42.4663 14.6887 42.0883 14.5207 41.6029 14.5207C41.1176 14.5207 40.7396 14.6887 40.4689 15.0247C40.1983 15.3607 40.0629 15.804 40.0629 16.3547V16.3967H43.1569Z" fill="white"/>
<path d="M50.299 20.8067C49.3377 20.8067 48.591 20.4753 48.059 19.8127V20.3307C48.059 20.424 48.0263 20.5033 47.961 20.5687C47.905 20.634 47.8257 20.6667 47.723 20.6667H46.617C46.5237 20.6667 46.4443 20.634 46.379 20.5687C46.3137 20.5033 46.281 20.424 46.281 20.3307V11.0627C46.281 10.96 46.3137 10.8807 46.379 10.8247C46.4443 10.7593 46.5237 10.7267 46.617 10.7267H47.807C47.9097 10.7267 47.989 10.7593 48.045 10.8247C48.1103 10.8807 48.143 10.96 48.143 11.0627V14.1707C48.675 13.5547 49.3937 13.2467 50.299 13.2467C51.2417 13.2467 51.965 13.5547 52.469 14.1707C52.973 14.7867 53.2437 15.5847 53.281 16.5647C53.2903 16.6767 53.295 16.826 53.295 17.0127C53.295 17.2087 53.2903 17.3627 53.281 17.4747C53.2437 18.4827 52.973 19.29 52.469 19.8967C51.965 20.5033 51.2417 20.8067 50.299 20.8067ZM49.781 19.3087C50.789 19.3087 51.3257 18.688 51.391 17.4467C51.4003 17.3533 51.405 17.2133 51.405 17.0267C51.405 16.84 51.4003 16.7 51.391 16.6067C51.3257 15.3653 50.789 14.7447 49.781 14.7447C49.2583 14.7447 48.857 14.9127 48.577 15.2487C48.3063 15.5753 48.1617 15.972 48.143 16.4387L48.129 16.9707L48.143 17.5167C48.171 18.0207 48.3157 18.4453 48.577 18.7907C48.8383 19.136 49.2397 19.3087 49.781 19.3087Z" fill="white"/>
<path d="M57.9962 20.6667C57.9028 20.6667 57.8235 20.634 57.7582 20.5687C57.6928 20.5033 57.6602 20.424 57.6602 20.3307V11.2167C57.6602 11.114 57.6882 11.03 57.7442 10.9647C57.8095 10.8993 57.8935 10.8667 57.9962 10.8667H59.2702C59.3728 10.8667 59.4522 10.8993 59.5082 10.9647C59.5735 11.03 59.6062 11.114 59.6062 11.2167V14.8287H63.7362V11.2167C63.7362 11.114 63.7642 11.03 63.8202 10.9647C63.8855 10.8993 63.9695 10.8667 64.0722 10.8667H65.3322C65.4348 10.8667 65.5188 10.8993 65.5842 10.9647C65.6495 11.03 65.6822 11.114 65.6822 11.2167V20.3307C65.6822 20.4333 65.6495 20.5173 65.5842 20.5827C65.5188 20.6387 65.4348 20.6667 65.3322 20.6667H64.0722C63.9788 20.6667 63.8995 20.634 63.8342 20.5687C63.7688 20.5033 63.7362 20.424 63.7362 20.3307V16.5787H59.6062V20.3307C59.6062 20.424 59.5735 20.5033 59.5082 20.5687C59.4522 20.634 59.3728 20.6667 59.2702 20.6667H57.9962Z" fill="white"/>
<path d="M69.5254 20.8067C69.0494 20.8067 68.6107 20.7133 68.2094 20.5267C67.8174 20.3307 67.5047 20.0693 67.2714 19.7427C67.0474 19.416 66.9354 19.0567 66.9354 18.6647C66.9354 18.03 67.192 17.5167 67.7054 17.1247C68.2187 16.7327 68.9234 16.4667 69.8194 16.3267L71.7374 16.0467V15.7527C71.7374 15.342 71.6347 15.034 71.4294 14.8287C71.224 14.6233 70.8927 14.5207 70.4354 14.5207C70.1274 14.5207 69.8754 14.5813 69.6794 14.7027C69.4927 14.8147 69.3434 14.9267 69.2314 15.0387C69.1194 15.16 69.0447 15.2393 69.0074 15.2767C68.97 15.3887 68.9 15.4447 68.7974 15.4447H67.7194C67.6354 15.4447 67.5607 15.4167 67.4954 15.3607C67.4394 15.3047 67.4114 15.23 67.4114 15.1367C67.4207 14.9033 67.5327 14.6373 67.7474 14.3387C67.9714 14.04 68.312 13.7833 68.7694 13.5687C69.2267 13.354 69.7867 13.2467 70.4494 13.2467C71.5507 13.2467 72.3534 13.494 72.8574 13.9887C73.3614 14.4833 73.6134 15.132 73.6134 15.9347V20.3307C73.6134 20.424 73.5807 20.5033 73.5154 20.5687C73.4594 20.634 73.38 20.6667 73.2774 20.6667H72.1434C72.05 20.6667 71.9707 20.634 71.9054 20.5687C71.84 20.5033 71.8074 20.424 71.8074 20.3307V19.7847C71.602 20.0833 71.308 20.3307 70.9254 20.5267C70.552 20.7133 70.0854 20.8067 69.5254 20.8067ZM70.0014 19.4767C70.5147 19.4767 70.9347 19.3087 71.2614 18.9727C71.588 18.6367 71.7514 18.1467 71.7514 17.5027V17.2087L70.3514 17.4327C69.81 17.5167 69.3994 17.652 69.1194 17.8387C68.8487 18.0253 68.7134 18.254 68.7134 18.5247C68.7134 18.8233 68.8394 19.0567 69.0914 19.2247C69.3434 19.3927 69.6467 19.4767 70.0014 19.4767Z" fill="white"/>
<path d="M75.4654 20.6667C75.3721 20.6667 75.2928 20.634 75.2274 20.5687C75.1621 20.5033 75.1294 20.424 75.1294 20.3307V13.7227C75.1294 13.6293 75.1621 13.55 75.2274 13.4847C75.2928 13.4193 75.3721 13.3867 75.4654 13.3867H76.6134C76.7068 13.3867 76.7861 13.4193 76.8514 13.4847C76.9168 13.55 76.9494 13.6293 76.9494 13.7227V14.2967C77.5001 13.5967 78.2794 13.2467 79.2874 13.2467C80.1461 13.2467 80.8274 13.5313 81.3314 14.1007C81.8354 14.6607 82.0874 15.426 82.0874 16.3967V20.3307C82.0874 20.424 82.0548 20.5033 81.9894 20.5687C81.9334 20.634 81.8541 20.6667 81.7514 20.6667H80.5194C80.4261 20.6667 80.3468 20.634 80.2814 20.5687C80.2161 20.5033 80.1834 20.424 80.1834 20.3307V16.4807C80.1834 15.93 80.0481 15.5053 79.7774 15.2067C79.5161 14.8987 79.1334 14.7447 78.6294 14.7447C78.1348 14.7447 77.7428 14.8987 77.4534 15.2067C77.1734 15.5147 77.0334 15.9393 77.0334 16.4807V20.3307C77.0334 20.424 77.0008 20.5033 76.9354 20.5687C76.8794 20.634 76.8001 20.6667 76.6974 20.6667H75.4654Z" fill="white"/>
<path d="M86.2878 20.8067C85.3451 20.8067 84.6217 20.5033 84.1177 19.8967C83.6138 19.29 83.3431 18.4827 83.3058 17.4747L83.2917 17.0127L83.3058 16.5647C83.3338 15.5847 83.5998 14.7867 84.1038 14.1707C84.6171 13.5547 85.3451 13.2467 86.2878 13.2467C87.1931 13.2467 87.9118 13.5547 88.4438 14.1707V11.0627C88.4438 10.96 88.4764 10.8807 88.5417 10.8247C88.6071 10.7593 88.6864 10.7267 88.7798 10.7267H89.9697C90.0724 10.7267 90.1517 10.7593 90.2077 10.8247C90.2731 10.8807 90.3058 10.96 90.3058 11.0627V20.3307C90.3058 20.424 90.2731 20.5033 90.2077 20.5687C90.1517 20.634 90.0724 20.6667 89.9697 20.6667H88.8638C88.7704 20.6667 88.6911 20.634 88.6257 20.5687C88.5604 20.5033 88.5278 20.424 88.5278 20.3307V19.8127C87.9958 20.4753 87.2491 20.8067 86.2878 20.8067ZM86.8058 19.3087C87.3471 19.3087 87.7484 19.136 88.0098 18.7907C88.2711 18.4453 88.4158 18.0207 88.4438 17.5167C88.4531 17.4047 88.4577 17.2227 88.4577 16.9707C88.4577 16.728 88.4531 16.5507 88.4438 16.4387C88.4251 15.972 88.2757 15.5753 87.9958 15.2487C87.7251 14.9127 87.3284 14.7447 86.8058 14.7447C85.7978 14.7447 85.2611 15.3653 85.1958 16.6067L85.1817 17.0267L85.1958 17.4467C85.2611 18.688 85.7978 19.3087 86.8058 19.3087Z" fill="white"/>
<path d="M95.9237 20.8067C94.9624 20.8067 94.2157 20.4753 93.6837 19.8127V20.3307C93.6837 20.424 93.651 20.5033 93.5857 20.5687C93.5297 20.634 93.4504 20.6667 93.3477 20.6667H92.2417C92.1484 20.6667 92.069 20.634 92.0037 20.5687C91.9384 20.5033 91.9057 20.424 91.9057 20.3307V11.0627C91.9057 10.96 91.9384 10.8807 92.0037 10.8247C92.069 10.7593 92.1484 10.7267 92.2417 10.7267H93.4317C93.5344 10.7267 93.6137 10.7593 93.6697 10.8247C93.735 10.8807 93.7677 10.96 93.7677 11.0627V14.1707C94.2997 13.5547 95.0184 13.2467 95.9237 13.2467C96.8664 13.2467 97.5897 13.5547 98.0937 14.1707C98.5977 14.7867 98.8684 15.5847 98.9057 16.5647C98.915 16.6767 98.9197 16.826 98.9197 17.0127C98.9197 17.2087 98.915 17.3627 98.9057 17.4747C98.8684 18.4827 98.5977 19.29 98.0937 19.8967C97.5897 20.5033 96.8664 20.8067 95.9237 20.8067ZM95.4057 19.3087C96.4137 19.3087 96.9504 18.688 97.0157 17.4467C97.025 17.3533 97.0297 17.2133 97.0297 17.0267C97.0297 16.84 97.025 16.7 97.0157 16.6067C96.9504 15.3653 96.4137 14.7447 95.4057 14.7447C94.883 14.7447 94.4817 14.9127 94.2017 15.2487C93.931 15.5753 93.7864 15.972 93.7677 16.4387L93.7537 16.9707L93.7677 17.5167C93.7957 18.0207 93.9404 18.4453 94.2017 18.7907C94.463 19.136 94.8644 19.3087 95.4057 19.3087Z" fill="white"/>
<path d="M103.418 20.8067C102.326 20.8067 101.481 20.5267 100.884 19.9667C100.286 19.3973 99.9643 18.6227 99.9176 17.6427L99.9036 17.0267L99.9176 16.4107C99.9643 15.44 100.291 14.67 100.898 14.1007C101.504 13.5313 102.344 13.2467 103.418 13.2467C104.491 13.2467 105.331 13.5313 105.938 14.1007C106.544 14.67 106.871 15.44 106.918 16.4107C106.927 16.5227 106.932 16.728 106.932 17.0267C106.932 17.3253 106.927 17.5307 106.918 17.6427C106.871 18.6227 106.549 19.3973 105.952 19.9667C105.354 20.5267 104.51 20.8067 103.418 20.8067ZM103.418 19.4207C103.912 19.4207 104.295 19.2667 104.566 18.9587C104.836 18.6413 104.986 18.1793 105.014 17.5727C105.023 17.4793 105.028 17.2973 105.028 17.0267C105.028 16.756 105.023 16.574 105.014 16.4807C104.986 15.874 104.836 15.4167 104.566 15.1087C104.295 14.7913 103.912 14.6327 103.418 14.6327C102.923 14.6327 102.54 14.7913 102.27 15.1087C101.999 15.4167 101.85 15.874 101.822 16.4807L101.808 17.0267L101.822 17.5727C101.85 18.1793 101.999 18.6413 102.27 18.9587C102.54 19.2667 102.923 19.4207 103.418 19.4207Z" fill="white"/>
<path d="M111.423 20.8067C110.331 20.8067 109.486 20.5267 108.889 19.9667C108.291 19.3973 107.969 18.6227 107.923 17.6427L107.909 17.0267L107.923 16.4107C107.969 15.44 108.296 14.67 108.903 14.1007C109.509 13.5313 110.349 13.2467 111.423 13.2467C112.496 13.2467 113.336 13.5313 113.943 14.1007C114.549 14.67 114.876 15.44 114.923 16.4107C114.932 16.5227 114.937 16.728 114.937 17.0267C114.937 17.3253 114.932 17.5307 114.923 17.6427C114.876 18.6227 114.554 19.3973 113.957 19.9667C113.359 20.5267 112.515 20.8067 111.423 20.8067ZM111.423 19.4207C111.917 19.4207 112.3 19.2667 112.571 18.9587C112.841 18.6413 112.991 18.1793 113.019 17.5727C113.028 17.4793 113.033 17.2973 113.033 17.0267C113.033 16.756 113.028 16.574 113.019 16.4807C112.991 15.874 112.841 15.4167 112.571 15.1087C112.3 14.7913 111.917 14.6327 111.423 14.6327C110.928 14.6327 110.545 14.7913 110.275 15.1087C110.004 15.4167 109.855 15.874 109.827 16.4807L109.813 17.0267L109.827 17.5727C109.855 18.1793 110.004 18.6413 110.275 18.9587C110.545 19.2667 110.928 19.4207 111.423 19.4207Z" fill="white"/>
<path d="M116.558 20.6667C116.465 20.6667 116.385 20.634 116.32 20.5687C116.255 20.5033 116.222 20.424 116.222 20.3307V11.0627C116.222 10.96 116.255 10.8807 116.32 10.8247C116.385 10.7593 116.465 10.7267 116.558 10.7267H117.692C117.795 10.7267 117.874 10.7593 117.93 10.8247C117.995 10.8807 118.028 10.96 118.028 11.0627V15.8507L120.38 13.6247C120.408 13.606 120.455 13.5687 120.52 13.5127C120.576 13.466 120.632 13.4333 120.688 13.4147C120.744 13.396 120.814 13.3867 120.898 13.3867H122.2C122.293 13.3867 122.368 13.4147 122.424 13.4707C122.48 13.5267 122.508 13.6013 122.508 13.6947C122.508 13.7787 122.461 13.8627 122.368 13.9467L119.484 16.6487L122.718 20.1207C122.811 20.214 122.858 20.2933 122.858 20.3587C122.858 20.452 122.825 20.5267 122.76 20.5827C122.704 20.6387 122.634 20.6667 122.55 20.6667H121.22C121.089 20.6667 120.991 20.6527 120.926 20.6247C120.87 20.5873 120.795 20.522 120.702 20.4287L118.028 17.6147V20.3307C118.028 20.424 117.995 20.5033 117.93 20.5687C117.874 20.634 117.795 20.6667 117.692 20.6667H116.558Z" fill="white"/>
<path d="M18 8.33332L17.3333 7.93332V29.2667L18 29.6666V8.33332Z" fill="#C4C4C4"/>
<path d="M2 24.6667L4.66667 26.2667V30.2667L3.33333 28L2 28.6667V24.6667Z" fill="#EF3124"/>
<path d="M1.33333 4.13332V3.46666L5.99999 1.13333V1.8L1.33333 4.13332Z" fill="#FFFFFF"/>
<path d="M6 21.8V1.80002L2 3.80002V23.8L6 21.8Z" fill="white"/>
<path d="M4.66667 0.333344L18 8.33334V29.6667L4.66667 21.6667V0.333344Z" fill="#FFFFFF"/>
<path d="M17.3333 8.60001L13.3333 10.6L2 3.80002L6 1.80002L17.3333 8.60001Z" fill="white"/>
<path d="M18 8.33333V8.99999L6 1.8V1.13333L18 8.33333Z" fill="#FFFFFF"/>
<path d="M17.3333 28.6V8.60001L13.3333 10.6V30.6L17.3333 28.6Z" fill="#F3F4F5"/>
<path d="M18.6667 8L5.33333 0C4.11974 0.228648 3.42966 0.431533 2.33333 1C1.33922 1.51547 0.779532 1.86274 0 2.66667L13.3333 10.6667L14 10.3333L2 3.13333L6 1.13333L18 8.33333L18.6667 8Z" fill="#78A3FF"/>
<path d="M14 10.3333L13.3333 10.6667V32L14 31.6667V10.3333Z" fill="#125EFF"/>
<path d="M18.6667 8L18 8.33333V29.6667L18.6667 29.3333V8Z" fill="#125EFF"/>
<path d="M0 2.66666L13.3333 10.6667V32L0 24V2.66666Z" fill="#4480FF"/>
<path d="M4.86353 13.7749C4.89717 13.8331 4.91403 13.8876 4.91403 13.9381C4.91403 13.9886 4.89722 14.0236 4.86353 14.043L2.87968 15.1883L4.86351 18.6245C4.89715 18.6828 4.91401 18.7372 4.91401 18.7877C4.91401 18.8103 4.91063 18.8298 4.90388 18.8462C4.89556 18.8665 4.8821 18.8819 4.86351 18.8926L4.61108 19.0382C4.57744 19.0576 4.53879 19.0547 4.49497 19.0294C4.45115 19.0041 4.41249 18.9625 4.37886 18.9041L2.02657 14.8298C1.99292 14.7716 1.97607 14.7171 1.97607 14.6666C1.97607 14.6161 1.99287 14.5811 2.02657 14.5617L4.37888 13.2036C4.41251 13.1842 4.45124 13.187 4.49499 13.2123C4.53874 13.2376 4.57744 13.2794 4.6111 13.3377L4.86353 13.7749Z" fill="white"/>
<path d="M7.73576 14.0983L7.42272 13.8184C7.38242 13.7796 7.34273 13.7616 7.30412 13.7645C7.26883 13.7672 7.24395 13.7864 7.22966 13.8222C7.22829 13.8257 7.227 13.8293 7.22582 13.833L5.34293 20.271C5.32949 20.3137 5.3337 20.3639 5.35557 20.4211C5.3669 20.4508 5.38115 20.4782 5.39835 20.5035C5.41435 20.527 5.4329 20.5486 5.45402 20.5683L5.76698 20.8481C5.80736 20.887 5.84692 20.905 5.88563 20.9021C5.92434 20.899 5.95045 20.8763 5.96386 20.8336L7.8468 14.3956C7.86023 14.3528 7.85605 14.3028 7.83415 14.2454C7.81225 14.188 7.77953 14.139 7.73576 14.0983Z" fill="white"/>
<path d="M11.1632 19.8367L8.81084 15.7623C8.77721 15.7041 8.73848 15.6622 8.6948 15.637C8.65098 15.6117 8.6124 15.6089 8.57864 15.6283L8.32631 15.774C8.29269 15.7935 8.27592 15.8285 8.27592 15.879C8.27592 15.9296 8.29267 15.9839 8.32631 16.0422L10.3102 19.4783L8.32631 20.6238C8.29269 20.6432 8.27592 20.6783 8.27592 20.7287C8.27592 20.7793 8.29267 20.8337 8.32631 20.8919L8.57864 21.3289C8.61239 21.3873 8.651 21.4289 8.6948 21.4542C8.7385 21.4794 8.77721 21.4824 8.81084 21.4629L11.1632 20.1049C11.1778 20.0965 11.1892 20.0852 11.1974 20.0709C11.2083 20.0522 11.2137 20.0285 11.2137 19.9999C11.2137 19.9494 11.1969 19.8949 11.1632 19.8367Z" fill="white"/>
</svg>
